<svg xmlns="http://www.w3.org/2000/svg" width="244.022" height="56" viewBox="0 0 244.022 56">
  <g id="Group_46" data-name="Group 46" transform="translate(-49.503 -43.641)">
    <path id="Path_44" data-name="Path 44" d="M547.066,82.864H527.1l-11.986,25.708h19.945l2.619-5.625H527.235l2.179-4.675h9.5l2.537-5.454h-9.5l1.873-4.014H544.3Z" transform="translate(-383.444 -32.301)" fill="#3c3d3d"/>
    <path id="Path_45" data-name="Path 45" d="M75.5,82.487H61.526L49.5,108.261h8.275l8.978-19.244-4.472,19.244h8.77l13.307-19.1-8.907,19.1H83.73L95.749,82.49h-13.9L71.617,97.608Z" transform="translate(0 -31.991)" fill="#3c3d3d"/>
    <g id="Group_46-2" data-name="Group 46" transform="translate(49.507 85.326)">
      <path id="Path_46" data-name="Path 46" d="M49.525,286.724h2.708a4.865,4.865,0,0,1-.013,9.724h-2.7Zm1.9,8.073h.309c2.335,0,3.237-1.29,3.237-3.211,0-2.115-1.083-3.211-3.237-3.211h-.309Z" transform="translate(-49.525 -285.512)" fill="#3c3d3d"/>
      <path id="Path_47" data-name="Path 47" d="M104.766,305.947v3.43c0,.722.116,1.586,1.032,1.586s1.031-.864,1.031-1.586v-3.43h1.805v3.727a2.837,2.837,0,0,1-5.674,0v-3.727Z" transform="translate(-93.531 -301.342)" fill="#3c3d3d"/>
      <path id="Path_48" data-name="Path 48" d="M150.817,305.64h.026a1.811,1.811,0,0,1,1.574-.864,2.087,2.087,0,0,1,.748.155l-.22,1.676a1.28,1.28,0,0,0-.748-.232c-1.251,0-1.38,1.109-1.38,2.089v2.85h-1.805v-6.332h1.805Z" transform="translate(-131.456 -300.378)" fill="#3c3d3d"/>
      <path id="Path_49" data-name="Path 49" d="M186.442,311.315h-1.78v-.58h-.026a2.187,2.187,0,0,1-1.715.787c-1.857,0-2.915-1.69-2.915-3.4a3.093,3.093,0,0,1,2.889-3.34,2.344,2.344,0,0,1,1.767.8v-.593h1.78Zm-1.6-3.173a1.524,1.524,0,1,0-1.509,1.78A1.665,1.665,0,0,0,184.842,308.142Z" transform="translate(-156.98 -300.378)" fill="#3c3d3d"/>
      <path id="Path_50" data-name="Path 50" d="M230.59,279.854H232.4v5.185a2.333,2.333,0,0,1,1.754-.787,3.117,3.117,0,0,1,2.889,3.34c0,1.728-1.057,3.4-2.927,3.4a2.092,2.092,0,0,1-1.69-.8H232.4v.593H230.59Zm4.617,7.764a1.519,1.519,0,1,0-1.5,1.78A1.655,1.655,0,0,0,235.207,287.618Z" transform="translate(-198.638 -279.854)" fill="#3c3d3d"/>
      <path id="Path_51" data-name="Path 51" d="M280.42,290.791h-1.806V279.854h1.806Z" transform="translate(-238.187 -279.854)" fill="#3c3d3d"/>
      <path id="Path_52" data-name="Path 52" d="M302.16,308.439c0,.8.31,1.7,1.251,1.7a1.323,1.323,0,0,0,1.212-.864l1.664.271a2.913,2.913,0,0,1-2.876,1.973,3.061,3.061,0,0,1-3.16-3.315c0-1.921,1.019-3.43,3.07-3.43,2.076,0,3,1.535,3,3.444v.219Zm2.463-1.122a1.323,1.323,0,0,0-1.2-1.277,1.3,1.3,0,0,0-1.212,1.277Z" transform="translate(-256.005 -300.378)" fill="#3c3d3d"/>
      <path id="Path_53" data-name="Path 53" d="M376.209,306.917a1.777,1.777,0,0,0-1.328-.619,1.735,1.735,0,0,0-1.6,1.883A1.683,1.683,0,0,0,374.945,310a1.721,1.721,0,0,0,1.264-.606v1.741a3.15,3.15,0,0,1-1.561.387,3.233,3.233,0,0,1-3.2-3.353,3.278,3.278,0,0,1,3.289-3.392,2.831,2.831,0,0,1,1.47.4Z" transform="translate(-314.64 -300.378)" fill="#3c3d3d"/>
      <path id="Path_54" data-name="Path 54" d="M413.311,290.791h-1.805V279.854h1.805Z" transform="translate(-347.627 -279.854)" fill="#3c3d3d"/>
      <path id="Path_55" data-name="Path 55" d="M435.052,308.439c0,.8.31,1.7,1.251,1.7a1.323,1.323,0,0,0,1.212-.864l1.664.271a2.913,2.913,0,0,1-2.876,1.973,3.061,3.061,0,0,1-3.16-3.315c0-1.921,1.019-3.43,3.07-3.43,2.076,0,3,1.535,3,3.444v.219Zm2.463-1.122a1.323,1.323,0,0,0-1.2-1.277,1.3,1.3,0,0,0-1.212,1.277Z" transform="translate(-365.446 -300.378)" fill="#3c3d3d"/>
      <path id="Path_56" data-name="Path 56" d="M482.926,311.315h-1.78v-.58h-.026a2.187,2.187,0,0,1-1.715.787c-1.857,0-2.915-1.69-2.915-3.4a3.093,3.093,0,0,1,2.889-3.34,2.344,2.344,0,0,1,1.767.8v-.593h1.78Zm-1.6-3.173a1.524,1.524,0,1,0-1.509,1.78A1.665,1.665,0,0,0,481.326,308.142Z" transform="translate(-401.144 -300.378)" fill="#3c3d3d"/>
      <path id="Path_57" data-name="Path 57" d="M528.879,305.563h.026a1.892,1.892,0,0,1,1.651-.787c1.7,0,2.193,1.2,2.193,2.67v3.869h-1.806v-3.353c0-.761.039-1.741-.98-1.741-1.071,0-1.083,1.2-1.083,1.96v3.134h-1.805v-6.332h1.805Z" transform="translate(-442.801 -300.378)" fill="#3c3d3d"/>
      <path id="Path_58" data-name="Path 58" d="M574.976,285.9a1.07,1.07,0,1,1-1.071-1.07A1.068,1.068,0,0,1,574.976,285.9Zm-.168,8.989H573v-6.332h1.805Z" transform="translate(-480.487 -283.949)" fill="#3c3d3d"/>
      <path id="Path_59" data-name="Path 59" d="M600.295,305.563h.026a1.892,1.892,0,0,1,1.651-.787c1.7,0,2.192,1.2,2.192,2.67v3.869h-1.805v-3.353c0-.761.039-1.741-.98-1.741-1.07,0-1.083,1.2-1.083,1.96v3.134h-1.806v-6.332h1.806Z" transform="translate(-501.614 -300.378)" fill="#3c3d3d"/>
      <path id="Path_60" data-name="Path 60" d="M648.541,310.928c0,2.063-.7,3.766-3.069,3.766a2.981,2.981,0,0,1-3.2-2.631h1.908a1.209,1.209,0,0,0,1.251,1.109c1.277,0,1.3-1.122,1.3-2.077v-.413h-.026a2.2,2.2,0,0,1-1.728.839c-1.857,0-2.85-1.625-2.85-3.328,0-1.741,1.058-3.418,2.94-3.418a2.1,2.1,0,0,1,1.638.813h.026v-.606h1.806Zm-1.586-2.773a1.517,1.517,0,1,0-1.5,1.767A1.667,1.667,0,0,0,646.954,308.155Z" transform="translate(-537.554 -300.378)" fill="#3c3d3d"/>
      <path id="Path_61" data-name="Path 61" d="M720.5,302.286H718.7v-4.811h-.619v-1.521h.619v-2.141H720.5v2.141h1.109v1.521H720.5Z" transform="translate(-600.1 -291.35)" fill="#3c3d3d"/>
      <path id="Path_62" data-name="Path 62" d="M751.268,308.155a3.328,3.328,0,1,1-3.327-3.379A3.2,3.2,0,0,1,751.268,308.155Zm-4.823,0a1.519,1.519,0,1,0,1.5-1.78A1.655,1.655,0,0,0,746.445,308.155Z" transform="translate(-621.951 -300.378)" fill="#3c3d3d"/>
      <path id="Path_63" data-name="Path 63" d="M798.051,308.155a3.328,3.328,0,1,1-3.327-3.379A3.2,3.2,0,0,1,798.051,308.155Zm-4.823,0a1.519,1.519,0,1,0,1.5-1.78A1.655,1.655,0,0,0,793.228,308.155Z" transform="translate(-660.478 -300.378)" fill="#3c3d3d"/>
      <path id="Path_64" data-name="Path 64" d="M842.471,290.791h-1.805V279.854h1.805Z" transform="translate(-701.054 -279.854)" fill="#3c3d3d"/>
      <path id="Path_65" data-name="Path 65" d="M866.3,306.478a1.435,1.435,0,0,0-.954-.438.582.582,0,0,0-.593.542c0,.464.657.593,1.3.877a1.832,1.832,0,0,1,1.3,1.818,2.277,2.277,0,0,1-2.463,2.244,2.909,2.909,0,0,1-2.231-1.058l.825-1.071a1.91,1.91,0,0,0,1.341.735.682.682,0,0,0,.722-.684c0-.554-.632-.683-1.264-.954a1.694,1.694,0,0,1-1.264-1.664,1.954,1.954,0,0,1,2.012-2.051,3.293,3.293,0,0,1,2.038.658Z" transform="translate(-719.173 -300.378)" fill="#3c3d3d"/>
      <path id="Path_66" data-name="Path 66" d="M930.85,306.478a1.434,1.434,0,0,0-.954-.438.582.582,0,0,0-.593.542c0,.464.657.593,1.3.877a1.832,1.832,0,0,1,1.3,1.818,2.277,2.277,0,0,1-2.463,2.244,2.908,2.908,0,0,1-2.231-1.058l.825-1.071a1.909,1.909,0,0,0,1.341.735.682.682,0,0,0,.722-.684c0-.554-.632-.683-1.264-.954a1.694,1.694,0,0,1-1.264-1.664,1.954,1.954,0,0,1,2.012-2.051,3.293,3.293,0,0,1,2.038.658Z" transform="translate(-772.328 -300.378)" fill="#3c3d3d"/>
      <path id="Path_67" data-name="Path 67" d="M967.8,285.9a1.071,1.071,0,1,1-1.071-1.07A1.068,1.068,0,0,1,967.8,285.9Zm-.168,8.989h-1.805v-6.332h1.805Z" transform="translate(-803.991 -283.949)" fill="#3c3d3d"/>
      <path id="Path_68" data-name="Path 68" d="M993.126,305.563h.026a1.891,1.891,0,0,1,1.651-.787c1.7,0,2.192,1.2,2.192,2.67v3.869H995.19v-3.353c0-.761.039-1.741-.98-1.741-1.071,0-1.083,1.2-1.083,1.96v3.134h-1.805v-6.332h1.805Z" transform="translate(-825.123 -300.378)" fill="#3c3d3d"/>
      <path id="Path_69" data-name="Path 69" d="M1039.716,306.917a1.777,1.777,0,0,0-1.328-.619,1.735,1.735,0,0,0-1.6,1.883,1.683,1.683,0,0,0,1.664,1.819,1.72,1.72,0,0,0,1.264-.606v1.741a3.15,3.15,0,0,1-1.561.387,3.234,3.234,0,0,1-3.2-3.353,3.278,3.278,0,0,1,3.289-3.392,2.83,2.83,0,0,1,1.47.4Z" transform="translate(-861.058 -300.378)" fill="#3c3d3d"/>
      <path id="Path_70" data-name="Path 70" d="M1074.365,308.439c0,.8.31,1.7,1.251,1.7a1.323,1.323,0,0,0,1.212-.864l1.664.271a2.914,2.914,0,0,1-2.876,1.973,3.061,3.061,0,0,1-3.16-3.315c0-1.921,1.019-3.43,3.07-3.43,2.076,0,3,1.535,3,3.444v.219Zm2.464-1.122a1.323,1.323,0,0,0-1.2-1.277,1.3,1.3,0,0,0-1.212,1.277Z" transform="translate(-891.94 -300.378)" fill="#3c3d3d"/>
    </g>
    <g id="Group_47" data-name="Group 47" transform="translate(243.83 86.28)">
      <path id="Path_71" data-name="Path 71" d="M1150.691,288.375v-1.651h3.172v9.724h-1.9v-8.073Z" transform="translate(-1150.691 -286.466)" fill="#3c3d3d"/>
      <path id="Path_72" data-name="Path 72" d="M1192.653,288.037a2.851,2.851,0,0,1,5.7,0,2.384,2.384,0,0,1-1.277,2.141,2.482,2.482,0,0,1,1.574,2.476,3.162,3.162,0,0,1-6.294,0,2.482,2.482,0,0,1,1.573-2.476A2.384,2.384,0,0,1,1192.653,288.037Zm1.612,4.41a1.26,1.26,0,1,0,1.238-1.5A1.374,1.374,0,0,0,1194.265,292.447Zm.116-4.41a1.142,1.142,0,1,0,1.122-1.354A1.268,1.268,0,0,0,1194.381,288.037Z" transform="translate(-1185.003 -285.264)" fill="#3c3d3d"/>
      <path id="Path_73" data-name="Path 73" d="M1241.628,288.037a2.851,2.851,0,0,1,5.7,0,2.384,2.384,0,0,1-1.277,2.141,2.482,2.482,0,0,1,1.573,2.476,3.162,3.162,0,0,1-6.294,0,2.482,2.482,0,0,1,1.573-2.476A2.384,2.384,0,0,1,1241.628,288.037Zm1.612,4.41a1.26,1.26,0,1,0,1.238-1.5A1.374,1.374,0,0,0,1243.24,292.447Zm.116-4.41a1.142,1.142,0,1,0,1.122-1.354A1.268,1.268,0,0,0,1243.356,288.037Z" transform="translate(-1225.336 -285.264)" fill="#3c3d3d"/>
      <path id="Path_74" data-name="Path 74" d="M1292.492,288.375l-.336,1.483.49-.026a3.188,3.188,0,0,1,3.134,3.379,3.348,3.348,0,0,1-3.534,3.5,3.7,3.7,0,0,1-2.889-1.29l.567-1.625a2.762,2.762,0,0,0,2.193,1.264,1.81,1.81,0,0,0,1.741-1.922,1.907,1.907,0,0,0-1.9-1.935,2.41,2.41,0,0,0-1.56.632h-.3l1.044-5.107h4.23v1.651Z" transform="translate(-1264.888 -286.466)" fill="#3c3d3d"/>
    </g>
    <path id="Path_75" data-name="Path 75" d="M1405.86,84.014h-.315v.864h.194c.451,0,.6-.257.6-.487,0-.266-.123-.377-.476-.377m.5,2.416-.779-1.236h-.036V86.43h-.488V83.624h.854c.666,0,.934.282.934.707a.766.766,0,0,1-.741.812c.06.073.171.231.279.4l.583.885Zm-2.454-1.408a2.033,2.033,0,0,0,1.979,2.039,1.98,1.98,0,0,0,1.979-1.99,2.016,2.016,0,0,0-1.979-2.041,1.992,1.992,0,0,0-1.979,1.991m4.542.026a2.59,2.59,0,0,1-2.562,2.548,2.51,2.51,0,0,1-2.549-2.548,2.551,2.551,0,0,1,2.549-2.552,2.516,2.516,0,0,1,2.563,2.552" transform="translate(-1114.922 -31.999)" fill="#3c3d3d"/>
    <path id="Path_76" data-name="Path 76" d="M829.08,82.5H815.107l-12.03,25.773h8.281l8.972-19.244-4.469,19.244h8.77l13.31-19.1-8.909,19.1h8.276L849.329,82.5h-13.9L825.2,97.615Z" transform="translate(-620.59 -31.998)" fill="#3c3d3d"/>
    <path id="Path_77" data-name="Path 77" d="M1184.724,82.487l-12,25.774h8.24l8.747-18.616-2.529,18.616h12.5l12.009-25.774h-8.168l-8.739,18.754,2.538-18.754Z" transform="translate(-925.004 -31.991)" fill="#3c3d3d"/>
    <path id="Path_78" data-name="Path 78" d="M1031.414,95.219a.085.085,0,0,1-.085-.13l3.037-6.344a.248.248,0,0,1,.2-.132h8.317a.087.087,0,0,1,.083.132l-3.039,6.344a.233.233,0,0,1-.2.13Zm19-12.711h-17.458a5.379,5.379,0,0,0-4.46,2.848l-10.653,22.918h7.692l3.33-6.831a.244.244,0,0,1,.2-.13h7.984a.085.085,0,0,1,.081.13l-3.328,6.833h4.509l3.22.033,10.7-22.953c.73-1.564-.177-2.848-1.906-2.848" transform="translate(-797.454 -32.008)" fill="#3c3d3d"/>
    <path id="Path_79" data-name="Path 79" d="M374.092,50.51c-5.147-8.174-17.736-9.2-28.121-2.289a29.278,29.278,0,0,0-3.314,2.57,23.8,23.8,0,0,1,15.06,9.906c4.032,5.744,7.253,10.7,11.688,13.124C376.171,66.817,378.352,57.275,374.092,50.51Z" transform="translate(-241.42 0)" fill="#2f95b2"/>
    <path id="Path_80" data-name="Path 80" d="M337.1,107.658a18.727,18.727,0,0,1-5.617-.117,23.183,23.183,0,0,1-2.467-.6,23.722,23.722,0,0,1-4.061-1.691c-.554-.314-1.112-.661-1.673-1.05l-.056-.038q-.4-.28-.8-.589l-.111-.086c-.267-.207-.534-.422-.8-.648l-.065-.056q-.39-.333-.778-.695l-.073-.067c-.258-.242-.516-.5-.773-.76l-.145-.149c-.253-.262-.505-.533-.756-.816l-.118-.136c-.246-.28-.491-.569-.735-.87l-.059-.072c-.251-.311-.5-.636-.747-.969l-.145-.2q-.362-.5-.72-1.023c-.044-.065-.088-.133-.133-.2-.248-.372-.495-.753-.739-1.15l-.014-.026-.016-.028-.028-.049-.04-.07-.031-.053-.065-.11-.035-.059-.088-.145-.04-.066-.109-.177-.045-.073-.133-.211-.047-.073-.156-.241-.052-.079q-.085-.13-.179-.269l-.053-.08-.2-.3-.056-.081q-.11-.159-.228-.325l-.052-.073c-.083-.117-.169-.236-.258-.358l-.043-.058c-.094-.129-.191-.259-.292-.393l-.029-.038q-.16-.212-.33-.43l-.009-.011a32.183,32.183,0,0,0-4.747-4.946l-.019-.016q-.269-.223-.547-.439l-.061-.048q-.265-.206-.539-.406l-.09-.066q-.264-.192-.536-.377l-.112-.076q-.267-.18-.54-.353l-.127-.08q-.271-.169-.547-.329l-.139-.08q-.276-.158-.557-.307l-.147-.076q-.282-.146-.569-.283l-.151-.07c-.194-.09-.389-.178-.587-.261l-.044-.02h0c-.438-.183-.883-.352-1.34-.5a12.37,12.37,0,0,0-3.3-.581c-.5,0-.236,0-.773,0a7.821,7.821,0,0,0-1.521.251,10.26,10.26,0,0,1,6.185,1.586c-6.675,6.993-8.808,16.464-4.571,23.191,5.147,8.171,17.733,9.192,28.118,2.29a29.643,29.643,0,0,0,2.622-1.966,20.418,20.418,0,0,0,4.4.416c.845,0,.756.006,1.679,0A6.494,6.494,0,0,0,337.1,107.658Z" transform="translate(-202.443 -32.001)" fill="#3c3d3d"/>
    <path id="Path_81" data-name="Path 81" d="M680.8,82.508H660.412l-12.091,25.771h7.695l4.94-10.117,1.112,0,3.487,10.116,6.488,0-3.226-10.125,5.542-.011a3.618,3.618,0,0,0,3.393-2.191l4.861-10.589A1.85,1.85,0,0,0,680.8,82.508Zm-7.361,6.2-1.8,3.7a.238.238,0,0,1-.2.131h-8.32c-.073,0-.111-.056-.078-.131l1.8-3.7a.237.237,0,0,1,.2-.13h8.314A.085.085,0,0,1,673.438,88.706Z" transform="translate(-493.144 -32.008)" fill="#3c3d3d"/>
  </g>
</svg>
